3.0Hz3min_grf.mot
version=1
nRows=10
nColumns 19
inDegrees=yes
endheader
time	1_ground_force_vx	1_ground_force_vy	1_ground_force_vz	1_ground_force_px	1_ground_force_py	1_ground_force_pz	1_ground_torque_x	1_ground_torque_y	1_ground_torque_z	2_ground_force_vx	2_ground_force_vy	2_ground_force_vz	2_ground_force_px	2_ground_force_py	2_ground_force_pz	2_ground_torque_x	2_ground_torque_y	2_ground_torque_z
            2.502500	           11.769389	          739.614186	          -76.695258	           -0.225113	            0.006320	           -0.427587	            0.006718	            0.422163	           -0.043777	           13.922249	          602.904757	           69.158365	           -0.240727	            0.005781	           -0.744326	            0.002005	            0.086811	            0.009958
            2.503000	           12.040137	          747.010274	          -77.856510	           -0.225237	            0.006318	           -0.427105	            0.005837	            0.362172	           -0.037747	           14.281488	          607.322551	           70.065617	           -0.241028	            0.005779	           -0.744135	            0.004745	            0.201785	            0.023279
            2.503500	           11.624906	          751.519891	          -78.569857	           -0.225383	            0.006318	           -0.427168	            0.003175	            0.205286	           -0.021462	           15.767180	          611.191419	           71.111196	           -0.241027	            0.005780	           -0.744311	           -0.000113	           -0.004382	           -0.000510
            2.504000	           11.714841	          756.749020	          -78.868664	           -0.225563	            0.006319	           -0.427312	            0.002636	            0.170277	           -0.017746	           17.576852	          616.166149	           72.207498	           -0.241215	            0.005780	           -0.744671	           -0.002795	           -0.097990	           -0.011483
            2.504500	           11.666042	          762.340559	          -79.624135	           -0.225629	            0.006318	           -0.427128	            0.002016	            0.131727	           -0.013758	           19.529775	          620.404488	           73.394984	           -0.241648	            0.005778	           -0.744498	           -0.006743	           -0.214205	           -0.025341
            2.505000	           12.441525	          767.213086	          -80.797445	           -0.225787	            0.006318	           -0.427102	            0.004370	            0.269504	           -0.028382	           21.481308	          625.011612	           74.442992	           -0.241783	            0.005779	           -0.744708	           -0.008690	           -0.252842	           -0.030115
            2.505500	           13.353559	          772.447560	          -82.336414	           -0.225795	            0.006318	           -0.427236	            0.006744	            0.390097	           -0.041581	           22.261616	          629.614338	           75.538418	           -0.242048	            0.005777	           -0.744690	           -0.002151	           -0.060822	           -0.007297
            2.506000	           14.173614	          778.043125	          -83.965312	           -0.225831	            0.006318	           -0.427127	            0.006797	            0.373138	           -0.040268	           22.385856	          634.216036	           76.258714	           -0.242030	            0.005778	           -0.744854	            0.002362	            0.066904	            0.008045
            2.506500	           14.811942	          782.734617	          -85.001498	           -0.226013	            0.006318	           -0.427065	            0.006660	            0.351963	           -0.038222	           22.185576	          637.894948	           77.210497	           -0.242093	            0.005778	           -0.744866	            0.002434	            0.069996	            0.008472
            2.507000	           15.038168	          788.506505	          -85.756879	           -0.226061	            0.006316	           -0.426779	            0.005766	            0.302329	           -0.032881	           22.544917	          642.311905	           78.352381	           -0.242216	            0.005778	           -0.744897	           -0.000395	           -0.011265	           -0.001374
